<svg width="100" height="12" viewBox="0 0 100 12" fill="none" xmlns="http://www.w3.org/2000/svg">
<path d="M7.02339 11.653C7.16615 11.6539 7.30765 11.6264 7.4397 11.5721C7.57176 11.5179 7.69173 11.438 7.79268 11.337C7.89362 11.2361 7.97353 11.1161 8.02776 10.9841C8.082 10.852 8.10949 10.7105 8.10864 10.5678C8.10949 10.425 8.082 10.2835 8.02776 10.1514C7.97353 10.0194 7.89362 9.89942 7.79268 9.79848C7.69173 9.69753 7.57176 9.61763 7.4397 9.56339C7.30765 9.50915 7.16615 9.48166 7.02339 9.48252H2.60535V1.9025C2.60535 1.2353 2.07878 0.708086 1.41094 0.708086C1.25384 0.706973 1.09808 0.737118 0.95274 0.796765C0.807397 0.856412 0.675369 0.94437 0.564338 1.05552C0.453307 1.16667 0.36549 1.29879 0.306 1.4442C0.246509 1.58961 0.216532 1.7454 0.217813 1.9025V10.4592C0.217813 11.1264 0.744382 11.6524 1.41158 11.6524H7.02403L7.02339 11.653ZM13.007 3.25103C14.2939 3.25103 15.2244 3.59201 15.8132 4.18087C16.4329 4.80184 16.7123 5.71562 16.7123 6.83298V10.614C16.7123 11.2497 16.1998 11.7461 15.5647 11.7461C14.8827 11.7461 14.4326 11.2651 14.4326 10.77V10.7533C13.8592 11.3891 13.0693 11.8078 11.9218 11.8078C10.3562 11.8078 9.06994 10.9087 9.06994 9.26547V9.23464C9.06994 7.42119 10.4493 6.58382 12.4182 6.58382C13.11 6.57782 13.7975 6.69346 14.4493 6.92545V6.78546C14.4493 5.80874 13.8431 5.26612 12.666 5.26612C12.1148 5.25991 11.5658 5.33808 11.0382 5.49793C10.9293 5.53895 10.8141 5.56026 10.6978 5.56086C10.1545 5.56086 9.72109 5.14218 9.72109 4.6002C9.72109 4.19243 9.9741 3.82768 10.3562 3.68512C11.1011 3.40579 11.9064 3.25103 13.007 3.25103V3.25103ZM12.9749 7.99464C11.9686 7.99464 11.3483 8.39791 11.3483 9.14153V9.17171C11.3483 9.80745 11.8755 10.1799 12.6358 10.1799H12.6352L12.7604 10.1773C13.75 10.1349 14.4236 9.58976 14.4763 8.82045L14.4795 8.72349V8.30416C14.0762 8.11858 13.5496 7.99464 12.9755 7.99464H12.9749ZM19.9211 11.7461C20.5723 11.7461 21.0982 11.2196 21.0982 10.5678V8.36645C21.0982 6.69234 21.766 5.77856 22.9592 5.49922C23.4395 5.39005 23.8421 5.0176 23.8421 4.39856C23.8421 3.73072 23.4234 3.25103 22.6959 3.25103C21.9972 3.25103 21.4398 3.99529 21.0995 4.80183V4.42938C21.0995 4.11686 20.9753 3.81714 20.7543 3.59616C20.5334 3.37517 20.2336 3.25103 19.9211 3.25103C19.6086 3.25103 19.3089 3.37517 19.0879 3.59616C18.8669 3.81714 18.7428 4.11686 18.7428 4.42938V10.5684C18.7428 11.2189 19.2693 11.7455 19.9198 11.7455L19.9211 11.7461V11.7461ZM28.2756 3.25103C29.5631 3.25103 30.4929 3.59201 31.0818 4.18087C31.7015 4.80184 31.9808 5.71562 31.9808 6.83298V10.614C31.9808 11.2497 31.469 11.7461 30.8339 11.7461C30.1513 11.7461 29.7018 11.2651 29.7018 10.77V10.7533C29.1284 11.3891 28.3385 11.8084 27.1903 11.8084C25.6247 11.8078 24.3392 10.9087 24.3392 9.26547V9.23464C24.3392 7.42119 25.7185 6.58382 27.6874 6.58382C28.379 6.5779 29.0663 6.69353 29.7179 6.92545V6.78546C29.7179 5.80874 29.1123 5.26612 27.9352 5.26612C27.384 5.25991 26.835 5.33808 26.3074 5.49793C26.1985 5.53895 26.0833 5.56026 25.967 5.56086C25.4231 5.56086 24.9897 5.14218 24.9897 4.6002C24.9897 4.19243 25.2433 3.82768 25.6254 3.68512C26.3703 3.40579 27.1749 3.25103 28.2756 3.25103V3.25103ZM28.2448 7.99464C27.2378 7.99464 26.6175 8.39791 26.6175 9.14153V9.17171C26.6175 9.80745 27.1447 10.1799 27.9038 10.1799C29.0044 10.1799 29.748 9.57627 29.748 8.72349V8.30416C29.3454 8.11858 28.8188 7.99464 28.2448 7.99464V7.99464ZM37.3441 11.8238C37.9798 11.8238 38.4146 11.4045 38.6772 10.8009L41.2195 4.92513C41.2658 4.81661 41.3441 4.56873 41.3441 4.36709C41.3443 4.21907 41.315 4.07248 41.2579 3.9359C41.2009 3.79931 41.1172 3.67546 41.0117 3.57156C40.9063 3.46767 40.7812 3.38582 40.6438 3.33079C40.5064 3.27575 40.3593 3.24864 40.2113 3.25103C39.5917 3.25103 39.2661 3.6543 39.112 4.05693L37.2979 8.90907L35.5159 4.08776C35.3444 3.60742 35.0034 3.25103 34.3677 3.25103C33.7326 3.25103 33.2208 3.79365 33.2208 4.35168C33.2208 4.56873 33.2831 4.77037 33.3454 4.92577L35.8877 10.8009C36.151 11.4205 36.5851 11.8238 37.2202 11.8238H37.3448H37.3441V11.8238ZM46.3195 3.18874C49.0943 3.18874 50.3189 5.46839 50.3189 7.18809C50.3189 7.8707 49.8386 8.32021 49.2182 8.32021H44.553C44.7854 9.3894 45.529 9.94808 46.5835 9.94808C47.1881 9.95304 47.7771 9.75647 48.2576 9.3894C48.421 9.26158 48.6243 9.19562 48.8317 9.20318C49.3582 9.20318 49.7454 9.60774 49.7454 10.1337C49.7454 10.4438 49.6067 10.6769 49.4353 10.831C48.7071 11.452 47.7612 11.8392 46.552 11.8392C44.0566 11.8392 42.2123 10.0874 42.2123 7.54513V7.51495C42.2123 5.14218 43.9012 3.18874 46.3195 3.18874V3.18874ZM46.3195 5.07989C45.3435 5.07989 44.7077 5.77727 44.5215 6.84775H48.0713C47.932 5.79333 47.3117 5.07989 46.3195 5.07989V5.07989ZM53.4045 11.7461C54.0556 11.7461 54.5815 11.2196 54.5815 10.5678V1.42088C54.5815 1.10853 54.4575 0.808973 54.2366 0.588109C54.0157 0.367244 53.7162 0.243164 53.4038 0.243164C53.0915 0.243164 52.7919 0.367244 52.571 0.588109C52.3502 0.808973 52.2261 1.10853 52.2261 1.42088V10.5678C52.2261 11.2189 52.7527 11.7448 53.4032 11.7448L53.4045 11.7468V11.7461ZM62.8763 11.7461C63.5268 11.7461 64.0533 11.2196 64.0533 10.5678V4.75432L68.8278 11.0173C69.1533 11.4366 69.495 11.7147 70.0671 11.7147H70.1461C70.812 11.7147 71.3393 11.1881 71.3393 10.5215V1.88773C71.3393 1.57521 71.2151 1.27549 70.9941 1.0545C70.7731 0.833518 70.4734 0.70937 70.1609 0.70937C69.8484 0.70937 69.5487 0.833518 69.3277 1.0545C69.1067 1.27549 68.9825 1.57521 68.9825 1.88773V7.48284L64.3783 1.43693C64.054 1.01889 63.7124 0.739551 63.1389 0.739551H62.891C62.7339 0.738354 62.5782 0.768415 62.4328 0.827984C62.2874 0.887553 62.1553 0.97544 62.0442 1.08653C61.9332 1.19762 61.8453 1.3297 61.7857 1.47507C61.7261 1.62045 61.6961 1.77622 61.6973 1.93332V10.5671C61.6973 11.2183 62.2238 11.7461 62.875 11.7461H62.8756H62.8763ZM77.8026 3.18874C80.3757 3.18874 82.2822 5.09594 82.2822 7.48284V7.51366C82.2822 9.90185 80.3603 11.8386 77.7717 11.8386C75.1986 11.8386 73.2921 9.93138 73.2921 7.54513V7.51495C73.2921 5.12677 75.214 3.18874 77.8026 3.18874V3.18874ZM77.7717 5.21988C76.4232 5.21988 75.6173 6.25825 75.6173 7.48284V7.51366C75.6173 8.73826 76.5003 9.80809 77.8026 9.80809C79.1511 9.80809 79.957 8.76972 79.957 7.54513V7.51366C79.957 6.29036 79.074 5.21988 77.7717 5.21988ZM87.2744 11.8238C87.9101 11.8238 88.3429 11.4045 88.6075 10.8009L91.1492 4.92513C91.1954 4.81661 91.2744 4.56873 91.2744 4.36709C91.2746 4.21907 91.2453 4.07248 91.1882 3.9359C91.1311 3.79931 91.0474 3.67546 90.942 3.57156C90.8365 3.46767 90.7115 3.38582 90.574 3.33079C90.4366 3.27575 90.2896 3.24864 90.1416 3.25103C89.5213 3.25103 89.1957 3.6543 89.0416 4.05693L87.2275 8.90907L85.4442 4.08776C85.2747 3.60742 84.9331 3.25103 84.2973 3.25103C83.6622 3.25103 83.1504 3.79365 83.1504 4.35168C83.1504 4.56873 83.2127 4.77037 83.275 4.92577L85.8173 10.8009C86.0806 11.4205 86.5147 11.8238 87.1498 11.8238H87.2744V11.8238ZM96.1105 3.25103C97.3967 3.25103 98.3265 3.59201 98.9154 4.18087C99.5364 4.80184 99.8144 5.71562 99.8144 6.83298V10.614C99.8144 11.2497 99.3033 11.7461 98.6675 11.7461C97.9862 11.7461 97.5367 11.2651 97.5367 10.77V10.7533C96.9626 11.3891 96.1715 11.8078 95.0259 11.8078C93.459 11.8078 92.1721 10.9087 92.1721 9.26547V9.23464C92.1721 7.42119 93.5521 6.58382 95.521 6.58382C96.2126 6.5779 96.8999 6.69353 97.5515 6.92545V6.78546C97.5515 5.80874 96.9465 5.26612 95.7688 5.26612C95.2176 5.25991 94.6686 5.33808 94.141 5.49793C94.0322 5.53902 93.9169 5.56033 93.8006 5.56086C93.258 5.56086 92.8233 5.14218 92.8233 4.6002C92.8233 4.19179 93.0769 3.82704 93.459 3.68512C94.2033 3.40579 95.0098 3.25103 96.1105 3.25103V3.25103ZM96.079 7.99464C95.0708 7.99464 94.4511 8.39791 94.4511 9.14153V9.17171C94.4511 9.80745 94.9783 10.1799 95.738 10.1799C96.8387 10.1799 97.5829 9.57627 97.5829 8.72349V8.30416C97.1796 8.11858 96.6524 7.99464 96.079 7.99464V7.99464Z" fill="#475569"/>
</svg>